<?xml version="1.0" encoding="UTF-8" standalone="no"?>
<svg
   xmlns:dc="http://purl.org/dc/elements/1.1/"
   xmlns:cc="http://creativecommons.org/ns#"
   xmlns:rdf="http://www.w3.org/1999/02/22-rdf-syntax-ns#"
   xmlns:svg="http://www.w3.org/2000/svg"
   xmlns="http://www.w3.org/2000/svg"
   viewBox="0 0 113.38667 33.959999"
   height="33.959999"
   width="113.38667"
   xml:space="preserve"
   id="svg2"
   version="1.1"><metadata
     id="metadata8"><rdf:RDF><cc:Work
         rdf:about=""><dc:format>image/svg+xml</dc:format><dc:type
           rdf:resource="http://purl.org/dc/dcmitype/StillImage" /></cc:Work></rdf:RDF></metadata><defs
     id="defs6" /><g
     transform="matrix(1.3333333,0,0,-1.3333333,0,33.96)"
     id="g10"><g
       transform="scale(0.1)"
       id="g12"><path
         id="path14"
         style="fill:#ffffff;fill-opacity:1;fill-rule:nonzero;stroke:none"
         d="m 327.473,223.918 v 0 c -1.371,-1.371 -3.594,-1.371 -4.965,0 l -24.836,24.832 c -1.371,1.371 -1.371,3.594 0,4.969 1.371,1.371 3.598,1.371 4.969,0 l 24.832,-24.836 c 1.371,-1.371 1.371,-3.598 0,-4.965" /><path
         id="path16"
         style="fill:#ffffff;fill-opacity:1;fill-rule:nonzero;stroke:none"
         d="m 355.566,253.719 v 0 c 1.375,-1.375 1.375,-3.598 0,-4.969 l -24.828,-24.832 c -1.375,-1.371 -3.597,-1.371 -4.968,0 -1.372,1.367 -1.372,3.594 0,4.965 l 24.832,24.836 c 1.371,1.371 3.597,1.371 4.964,0" /><path
         id="path18"
         style="fill:#4cc3c0;fill-opacity:1;fill-rule:evenodd;stroke:none"
         d="m 146.262,90.0859 c -9.223,6.711 -22.082,4.7539 -28.793,-4.4726 L 93.1523,52.3438 c -6.7109,-9.2227 -4.7539,-22.0821 4.4727,-28.793 9.227,-6.711 22.082,-4.7539 28.789,4.4726 l 24.32,33.2657 c 6.707,9.2265 4.754,22.0898 -4.472,28.7968 z M 184,37.2461 C 174.773,43.957 161.914,42 155.207,32.7734 c -6.711,-9.2226 -4.75,-22.0859 4.473,-28.79293 9.222,-6.71094 22.082,-4.753908 28.793,4.46875 6.707,9.22658 4.75,22.08988 -4.473,28.79688 z M 37.2461,220.09 c 6.707,9.226 4.75,22.086 -4.4727,28.793 -9.2226,6.711 -22.082,4.754 -28.79293,-4.473 -6.70703,-9.226 -4.753908,-22.086 4.47266,-28.797 9.22267,-6.707 22.08207,-4.75 28.79297,4.477 z M 156.605,209.465 c -9.226,6.707 -22.085,4.754 -28.792,-4.473 L 31.0938,71.9141 c -6.7071,-9.2227 -4.75,-22.086 4.4726,-28.793 9.2266,-6.7109 22.0859,-4.7539 28.793,4.4687 L 161.074,180.672 c 6.992,9.223 4.754,22.082 -4.469,28.793 z M 46.4688,162.496 c 9.2265,-6.711 22.0859,-4.754 28.7929,4.473 l 24.0391,33.269 c 6.7112,9.227 4.7502,22.086 -4.4727,28.797 -9.2226,6.707 -22.082,4.754 -28.7929,-4.472 l -24.3164,-33.27 c -6.4297,-9.227 -4.4727,-22.086 4.75,-28.797 z M 850.395,113.293 c 0,27.117 -12.575,49.203 -46.676,49.203 -15.379,0 -26.278,-4.476 -33.828,-12.019 -7.543,7.265 -18.446,12.019 -33.821,12.019 -34.101,0 -46.679,-22.367 -46.679,-49.203 V 52.625 c 0,-7.2695 5.867,-13.1406 12.855,-13.1406 7.266,0 13.137,5.8711 13.137,13.1406 v 60.668 c 0,15.934 5.031,25.719 20.687,25.719 15.93,0 20.684,-9.785 20.684,-25.719 V 52.625 c 0,-7.2695 5.875,-13.1406 12.855,-13.1406 7.27,0 13.141,5.8711 13.141,13.1406 v 60.668 c 0,15.934 5.031,25.719 20.688,25.719 15.933,0 20.683,-9.785 20.683,-25.719 V 52.625 c 0,-7.2695 5.867,-13.1406 12.856,-13.1406 7.273,0 13.144,5.8711 13.144,13.1406 z M 651.09,162.777 c -7.266,0 -13.133,-5.871 -13.133,-13.14 V 88.9688 c 0,-15.9336 -6.992,-25.7188 -22.922,-25.7188 -15.933,0 -22.644,9.7852 -22.644,25.7188 v 60.6682 c 0,7.269 -5.871,13.14 -12.86,13.14 -7.265,0 -13.136,-5.871 -13.136,-13.14 V 88.9688 c 0,-27.1172 14.539,-49.2032 48.918,-49.2032 34.101,0 48.917,22.3633 48.917,49.2032 v 60.6682 c -0.277,7.269 -6.148,13.14 -13.14,13.14 z M 383.023,116.648 c 0,27.118 -14.257,44.731 -47.519,44.731 h -24.039 v 36.625 c 0,7.269 -5.871,13.137 -12.86,13.137 -7.269,0 -13.136,-5.868 -13.136,-13.137 V 88.9688 c 0,-27.1211 14.531,-49.2032 48.918,-49.2032 34.101,0 48.914,22.3633 48.914,49.2032 v 27.1212 0.558 z M 356.746,88.9688 c 0,-15.9336 -6.984,-25.7227 -22.922,-25.7227 -15.933,0 -22.64,9.7891 -22.64,25.7227 v 49.4842 h 23.761 c 19.289,0 21.801,-10.621 21.801,-22.363 z m 191.758,60.9492 c 0,8.105 -6.426,11.184 -12.297,11.184 h -65.133 c -6.426,0 -11.457,-5.036 -11.457,-11.184 0,-6.434 5.031,-11.465 11.457,-11.465 h 42.77 L 458.496,61.2891 c -1.676,-2.2344 -2.516,-5.3086 -2.516,-7.8243 0,-8.1093 6.43,-12.582 12.02,-12.582 h 69.047 c 6.426,0 11.457,5.0313 11.457,11.461 0,6.4335 -5.031,11.4648 -11.457,11.4648 h -46.406 l 54.23,75.4844 c 2.797,3.914 3.633,7.266 3.633,10.625 z M 420.48,211.141 c -8.105,0 -14.816,-6.707 -14.816,-14.817 0,-8.109 6.711,-15.097 14.816,-15.097 8.106,0 14.813,6.711 14.813,15.097 0,8.11 -6.707,14.817 -14.813,14.817 z m 0,-48.364 c -7.269,0 -13.136,-5.871 -13.136,-12.859 V 52.9023 c 0,-7.2656 5.867,-13.1367 13.136,-13.1367 7.27,0 13.141,5.8711 13.141,13.1367 v 97.0157 c 0,6.988 -5.871,12.859 -13.141,12.859" /></g></g></svg>